<svg width="242" height="180" viewBox="0 0 242 180" fill="none" xmlns="http://www.w3.org/2000/svg">
<path fill-rule="evenodd" clip-rule="evenodd" d="M1.00003 67.5H175.55L197.36 45H1.00003V11.26C0.965458 9.79876 1.22245 8.34529 1.756 6.98451C2.28955 5.62372 3.08894 4.38292 4.10748 3.33459C5.12601 2.28626 6.34326 1.45144 7.6881 0.878895C9.03294 0.306349 10.4784 0.00756379 11.94 0H230.06C231.519 0.0182357 232.959 0.324269 234.299 0.900539C235.639 1.47681 236.852 2.31198 237.868 3.35813C238.885 4.40428 239.685 5.64082 240.222 6.99682C240.759 8.35282 241.024 9.80158 241 11.26V168.74C241.035 170.201 240.778 171.655 240.244 173.015C239.711 174.376 238.911 175.617 237.893 176.665C236.874 177.714 235.657 178.549 234.312 179.121C232.967 179.694 231.522 179.992 230.06 180H11.94C10.4815 179.982 9.04099 179.676 7.70104 179.099C6.3611 178.523 5.14812 177.688 4.1317 176.642C3.11528 175.596 2.31542 174.359 1.77801 173.003C1.2406 171.647 0.976215 170.198 1.00003 168.74V67.5ZM142.82 123.75V146.25H186.45L208.27 123.75H142.82Z" fill="#FEFEFE"/>
</svg>
