<svg width="209" height="212" viewBox="0 0 209 212" fill="none" xmlns="http://www.w3.org/2000/svg">
<path d="M145.2 80C164.53 80 180.2 64.33 180.2 45C180.2 25.67 164.53 10 145.2 10C125.87 10 110.2 25.67 110.2 45C110.2 64.33 125.87 80 145.2 80Z" fill="#F7CD52"/>
<path d="M240 130H229.6C225.5 106.5 212.2 85.9 193.2 71.6C187.856 81.2391 179.742 89.0527 169.908 94.0302C160.075 99.0078 148.974 100.92 138.042 99.5199C127.109 98.1197 116.849 93.4714 108.587 86.1763C100.325 78.8812 94.4426 69.2748 91.7 58.6C90.3 59.2 88.9 59.8 87.6 60.4L61.8 40L61 78.1C51.2876 87.0696 43.5558 97.969 38.3 110.1L38 110H22C18.8174 110 15.7652 111.264 13.5147 113.515C11.2643 115.765 10 118.817 10 122V122V158C10 161.183 11.2643 164.235 13.5147 166.485C15.7652 168.736 18.8174 170 22 170H34.4C41.3 194.4 58.4 215 81 227.4V244C81 245.591 81.6321 247.117 82.7574 248.243C83.8826 249.368 85.4087 250 87 250H105C106.591 250 108.117 249.368 109.243 248.243C110.368 247.117 111 245.591 111 244V238.1C124.216 240.6 137.784 240.6 151 238.1V244C151 245.591 151.632 247.117 152.757 248.243C153.883 249.368 155.409 250 157 250H175C176.591 250 178.117 249.368 179.243 248.243C180.368 247.117 181 245.591 181 244V227.4C209.6 211.8 229.2 183.1 230.9 150H240C242.652 150 245.196 148.946 247.071 147.071C248.946 145.196 250 142.652 250 140C250 137.348 248.946 134.804 247.071 132.929C245.196 131.054 242.652 130 240 130ZM86 130C83.0333 130 80.1332 129.12 77.6664 127.472C75.1997 125.824 73.2771 123.481 72.1418 120.74C71.0065 117.999 70.7094 114.983 71.2882 112.074C71.867 109.164 73.2956 106.491 75.3934 104.393C77.4912 102.296 80.1639 100.867 83.0736 100.288C85.9834 99.7094 88.9994 100.006 91.7402 101.142C94.4811 102.277 96.8238 104.2 98.472 106.666C100.12 109.133 101 112.033 101 115C101 118.978 99.4197 122.794 96.6066 125.607C93.7936 128.42 89.9782 130 86 130V130Z" fill="#F7CD52"/>
</svg>
